<svg xmlns="http://www.w3.org/2000/svg" viewBox="0 0 42.61 64" xmlns:v="https://vecta.io/nano"><path d="M42.45 31.36c-.16-.3-.37-.56-.61-.8L30.17 18.89l-14.4-14.4-2.46-2.43c-.99-.9-2.14-1.49-3.42-1.84C8.87-.04 7.83-.06 6.78.09c-.74.1-1.44.33-2.11.65-.49.23-.97.49-1.4.82-.55.41-1.06.88-1.49 1.42-.39.49-.74 1.01-1.01 1.58-.26.55-.43 1.12-.56 1.71-.19.89-.24 1.79-.1 2.69.15 1.03.44 2.01.97 2.92.33.56.69 1.09 1.14 1.55l18.64 18.5L3.02 49.79l-1.21 1.27c-.67.82-1.2 1.71-1.51 2.73-.33 1.12-.38 2.25-.19 3.39.19 1.13.57 2.21 1.2 3.18.24.37.49.73.79 1.05.52.56 1.08 1.05 1.74 1.44a8.02 8.02 0 0 0 1.71.78c1.01.31 2.04.43 3.1.33a8.43 8.43 0 0 0 2-.46c1.16-.42 2.16-1.1 3.03-1.96l5.77-5.75 7.73-7.73 7.51-7.51 7.18-7.18c.22-.22.41-.46.56-.73a1.27 1.27 0 0 0 .01-1.28z" fill="#fff"/></svg>