<svg xmlns="http://www.w3.org/2000/svg" viewBox="0 0 64 63.99" fill="#fff" xmlns:v="https://vecta.io/nano"><path d="M59.6 33.53c-.33-.38-.43-.68-.02-1.04.11-.09.19-.22.28-.34 3.64-4.72 5.02-9.99 3.57-15.83-1.25-5.04-4.3-8.86-8.54-11.73C49.1.66 42.66-.63 35.77.27c-6.18.81-11.54 3.34-15.8 7.97-2.13 2.31-3.62 4.98-4.41 8.02 1.41-.45 2.86-.81 4.36-1.09 9.21-1.69 17.86-.08 25.72 5.32 4.7 3.23 8.27 7.51 10.21 13.07.91 2.61 1.38 5.19 1.43 7.72h2.29 2.56c1.09-.03 1.85-.85 1.86-1.93 0-.69-.38-1.17-.78-1.64l-3.58-4.16zM15.83 63.97H2.24c-.92 0-1.65-.26-2.05-1.12-.39-.86-.15-1.61.46-2.29l4.12-4.68c.42-.46.49-.75.05-1.29C1.37 50.42-.31 45.61.05 40.17c.28-4.33 1.98-8.13 4.79-11.41 4.23-4.95 9.67-7.79 16.01-8.91 7.88-1.39 15.27-.06 21.99 4.38 4.02 2.66 7.07 6.18 8.73 10.76 2.11 5.82 1.48 11.43-1.75 16.68-3.19 5.19-7.85 8.62-13.49 10.77-2.82 1.07-5.74 1.6-8.78 1.55-3.91-.06-7.82-.01-11.72-.01zM18.7 41.2c-.02-2-1.68-3.65-3.66-3.66s-3.72 1.73-3.7 3.7c.02 2 1.78 3.72 3.73 3.67 2.01-.06 3.65-1.74 3.62-3.7zm7.67-3.67c-2 .01-3.72 1.76-3.68 3.72.05 1.99 1.73 3.65 3.69 3.65 2 0 3.71-1.75 3.67-3.72-.05-2.01-1.71-3.66-3.68-3.65zm11.36 7.37c1.98 0 3.64-1.66 3.67-3.66.03-1.99-1.68-3.72-3.68-3.71-1.97 0-3.65 1.67-3.68 3.66-.03 1.97 1.7 3.72 3.69 3.71z"/></svg>