<svg xmlns="http://www.w3.org/2000/svg" viewBox="0 0 97.15 64" fill="#fff" xmlns:v="https://vecta.io/nano"><path d="M92.75 33.54c-.33-.38-.43-.68-.02-1.04.11-.09.19-.22.28-.34 3.64-4.72 5.02-9.99 3.57-15.83-1.25-5.04-4.3-8.86-8.54-11.73C82.24.67 75.8-.62 68.91.28c-6.18.81-11.54 3.34-15.8 7.97-2.13 2.31-3.62 4.98-4.41 8.02 1.41-.45 2.86-.81 4.36-1.09 9.21-1.69 17.86-.08 25.72 5.32 4.7 3.23 8.27 7.51 10.21 13.07.91 2.61 1.38 5.19 1.43 7.72h2.29 2.56c1.09-.03 1.85-.85 1.86-1.93 0-.69-.38-1.17-.78-1.64l-3.58-4.16zM48.98 63.98h-13.6c-.92 0-1.65-.26-2.05-1.12-.39-.86-.15-1.61.46-2.29l4.12-4.68c.42-.46.49-.75.05-1.29-3.45-4.19-5.13-9-4.78-14.43.28-4.33 1.98-8.13 4.79-11.41 4.23-4.95 9.67-7.79 16.01-8.91 7.88-1.39 15.28-.06 21.99 4.38 4.02 2.66 7.07 6.18 8.73 10.76 2.11 5.82 1.48 11.43-1.75 16.68-3.19 5.19-7.85 8.63-13.49 10.77-2.82 1.07-5.74 1.6-8.78 1.55-3.91-.06-7.82-.01-11.72-.01zm2.87-22.77a3.74 3.74 0 0 0-3.66-3.67c-1.98-.01-3.72 1.73-3.7 3.7.02 2 1.78 3.72 3.73 3.67 2.01-.06 3.65-1.74 3.62-3.7zm7.67-3.67c-2 .01-3.72 1.76-3.68 3.72.05 1.99 1.73 3.65 3.69 3.65 2 0 3.71-1.75 3.67-3.72-.05-2.01-1.71-3.66-3.68-3.65zm11.36 7.37c1.98 0 3.64-1.66 3.67-3.66.03-1.99-1.68-3.72-3.68-3.71-1.97 0-3.65 1.67-3.68 3.66-.03 1.97 1.7 3.72 3.69 3.71zM.1 32.37c.09.17.21.32.35.46l6.75 6.75 8.33 8.32 1.42 1.4c.57.52 1.24.86 1.97 1.06.59.16 1.2.17 1.8.08.43-.06.83-.19 1.22-.38.28-.13.56-.29.81-.47.32-.24.61-.51.86-.82.23-.28.43-.58.58-.91a4.4 4.4 0 0 0 .32-.99 4.26 4.26 0 0 0 .06-1.55c-.09-.59-.25-1.16-.56-1.69-.19-.32-.4-.63-.66-.9l-10.77-10.7L22.9 21.71l.7-.73a4.53 4.53 0 0 0 .87-1.58c.19-.65.22-1.3.11-1.96s-.33-1.28-.7-1.84l-.45-.61c-.3-.32-.63-.61-1.01-.83-.31-.19-.64-.34-.99-.45a4.53 4.53 0 0 0-1.79-.19 4.66 4.66 0 0 0-1.16.27c-.67.24-1.25.63-1.75 1.13l-3.34 3.32-4.47 4.47-4.34 4.34L.43 31.2a1.8 1.8 0 0 0-.32.42c-.13.25-.14.49 0 .74z"/></svg>