<svg id="Layer_1" data-name="Layer 1" xmlns="http://www.w3.org/2000/svg" viewBox="0 0 639.98 512"><defs><style>.cls-1{fill:#fff;}</style></defs><title>comments-solid</title><path class="cls-1" d="M208,352c114.9,0,208-78.8,208-176S322.9,0,208,0,0,78.8,0,176c0,38.6,14.7,74.3,39.6,103.4a92.82,92.82,0,0,1-14.2,24.7,114.69,114.69,0,0,1-13.3,14.3c-1.8,1.6-3.3,2.9-4.3,3.7a8.84,8.84,0,0,1-1.1.8l-.2.2h0A16,16,0,0,0,.8,340.9,16.23,16.23,0,0,0,16,352c21.8,0,43.8-5.6,62.1-12.5a222.31,222.31,0,0,0,25.3-11.4C134.1,343.3,169.8,352,208,352ZM448,176c0,112.3-99.1,196.9-216.5,207C255.8,457.4,336.4,512,432,512c38.2,0,73.9-8.7,104.7-23.9a220.47,220.47,0,0,0,25.2,11.4c18.3,6.9,40.3,12.5,62.1,12.5a16,16,0,0,0,9.4-29h0l-.2-.2c-.2-.2-.6-.4-1.1-.8-1-.8-2.5-2-4.3-3.7A114.69,114.69,0,0,1,614.5,464a94.42,94.42,0,0,1-14.2-24.7c24.9-29,39.6-64.7,39.6-103.4,0-92.8-84.9-168.9-192.6-175.5.4,5.1.6,10.3.6,15.5Z" transform="translate(0.01)"/></svg>