<svg xmlns="http://www.w3.org/2000/svg" viewBox="0 0 64 48.76" xmlns:v="https://vecta.io/nano"><path d="M49.5 40.55l-1.17-.91c-.17-.14-.32-.07-.49 0-9.91 4.57-21.79 4.63-31.77 0-.21-.1-.38-.12-.57.03-.35.29-.72.57-1.09.87.38.33.81.52 1.22.74 1.27.67 2.57 1.28 3.91 1.79.3.12.33.2.16.49l-1.16 2.02c-.51.88-1.08 1.72-1.67 2.55-.11.16-.22.31-.32.47s-.2.18-.39.12c-5.72-1.76-10.79-4.57-15.7-7.93a.52.52 0 0 1-.25-.44c-.08-1.1-.18-2.21-.2-3.31C-.2 25.37 3.02 14.01 9.56 4.32c.2-.29.49-.4.78-.52C13.86 2.33 17.71.92 21.56.27c.36-.06.72-.15 1.07-.24.21-.06.36 0 .46.21.25.52.52 1.02.75 1.55.2.46.53.87.64 1.37.05.22.22.25.41.23l1.24-.14c4.11-.56 8.33-.49 12.44.09.72.1.72.11 1.03-.54L40.79.38c.2-.4.22-.39.66-.31 4.08.71 8.01 1.92 11.81 3.56.18.08.34.18.53.23.35.1.56.35.74.64 6.93 10.6 10.34 23.12 9.25 35.84-.02.21-.13.3-.3.43-4.67 3.37-9.97 6.3-15.53 7.89-.38.11-.5.08-.69-.19-1.09-1.52-2.09-3.1-2.94-4.76-.04-.07-.07-.14-.11-.21-.13-.28-.13-.29.16-.41 1.3-.49 2.55-1.09 3.78-1.73.45-.23.9-.47 1.34-.8zm-28.33-7.28c1.92.04 3.45-.76 4.56-2.28 1.29-1.75 1.68-3.73 1.19-5.86-.28-1.23-.87-2.32-1.78-3.19-.76-.73-1.68-1.18-2.73-1.43-1.09-.25-2.08-.11-3.09.3-.99.4-1.77 1.03-2.4 1.88-1.29 1.72-1.57 3.89-1.14 5.95.2.98.7 1.87 1.35 2.63 1.05 1.23 2.36 2 4.04 2zm21.43 0c2.06 0 4.03-1.33 4.99-3.15 1.45-2.74.91-6.57-1.57-8.54-1.93-1.53-4.67-1.59-6.65-.08-1.62 1.24-2.5 3.32-2.49 5.36 0 1.54.49 3.09 1.45 4.29s2.42 2.02 3.95 2.11h.31z" fill="#fff"/></svg>