<svg xmlns="http://www.w3.org/2000/svg" viewBox="0 0 64 63.99" fill="#fff" xmlns:v="https://vecta.io/nano"><path d="M64 14.29c-.22.66-.37 1.35-.69 1.96-.31.59-.74 1.15-1.21 1.64l-5.12 5.13c-.85.85-1.65.85-2.5 0L40.98 9.53c-.85-.85-.86-1.65-.01-2.5l5-5.01C47 .98 48.19.27 49.66.08c.05 0 .09-.05.14-.08h1.33c2.02.29 3.44 1.54 4.78 2.94l5.16 5.16c1.37 1.31 2.58 2.68 2.9 4.63v1.55zM3.01 63.99c-1.72.01-3.17-1.49-3-3.21l1.13-10.23.41-3.57c.05-.33.2-.72.44-.95l32.99-33.01c.9-.9 1.67-.9 2.58.01l13.43 13.43c.88.88.88 1.67.01 2.54L17.91 62.07c-.17.17-.42.32-.65.35L3.18 63.99h-.17z"/></svg>