<svg xmlns="http://www.w3.org/2000/svg" viewBox="0 0 200.96 256" xmlns:v="https://vecta.io/nano"><defs><linearGradient id="A" x1="100.48" y1="6.84" x2="100.48" y2="251.14" gradientUnits="userSpaceOnUse"><stop offset="0" stop-color="#f33"/><stop offset=".06" stop-color="#f72c2c"/><stop offset=".22" stop-color="#ea2121"/><stop offset=".36" stop-color="#e61e1e"/><stop offset=".6" stop-color="#de1d1d"/><stop offset=".94" stop-color="#cb1c1c"/><stop offset="1" stop-color="#c71c1c"/></linearGradient></defs><path d="m.05,155.23c-.77-25.09,8.21-51.08,23.89-70.05,2.56-3.1,6.54-8.89,10.2-10.64,2.04-.98,5.02-.35,5.72,1.81.23.69.19,1.44.15,2.17-.68,13.22-3.19,33.28,5.43,44.8.06.11.12.21.22.38.03-.24.11-.38.02-.52-.06-1.31-.04-2.63,0-3.94.08-.1.08-.2.01-.31,0-.5.06-.99.1-1.48.18-2.07.6-4.1,1.05-6.1,1.01-4.45,2.58-8.72,4.47-12.88,1.15-2.54,2.46-5,3.86-7.4,10.36-17.73,31.03-29.76,32.58-51.71.44-6.3-.69-12.56-3.21-18.34-2.04-4.68-5.73-9.02-8.92-12.98-.88-1.1-1.73-2.29-2-3.67s.16-2.99,1.36-3.73c.74-.45,1.65-.52,2.52-.56,18.41-.8,37.24,5.05,51.36,17.04,17.45,14.82,25.26,38.46,23.61,60.88-.88,11.98-4.44,23.99-4.6,35.98-.07,5.45,1.71,11.39,6.32,14.29,3.37,2.11,7.78,2.21,11.47.73,4.85-1.94,7.53-5.78,9.98-10.12,1.28-2.27,2.78-5.63,6.02-4.65,1.87.57,3.19,2.21,4.33,3.8,21.13,29.59,19.3,70.3-1.75,99.47-26.68,36.99-80.02,47.81-121.03,30.34-30.86-13.15-50.94-39.36-59.88-70.9-1.99-7.03-3.06-14.33-3.29-21.72Z" fill="url(#A)"/><path d="M105.09 245.82l-2.24.03c-13.6.05-28.78-2.89-39.47-11.84-12.35-10.35-14.3-26.54-11.1-41.48 1.48-6.89 3.79-13.9 7.85-19.77.41-.6.92-.99 1.67-.87.78.13 1.21.65 1.41 1.4.66 2.48 1.59 4.85 2.78 7.12 1.84 3.51 4.19 6.62 7.1 9.31 3.26 3.01 8.92 3.18 9.59-2.38.35-2.89-1.03-5.66-2.13-8.36-4.92-12.06-4.61-25.84-.89-38.32 4.1-13.78 11.99-27.59 22.3-37.63 4.82-4.7 10.01-8.77 15.36-12.83.85-.65 2.04-1.3 2.9-.67.9.66.54 2.06.12 3.09-6.86 16.83-8.41 37.41.2 53.93 8.29 15.9 23.09 27.31 29.33 44.43 3.42 9.38 4.28 19.88 1.19 29.37-6.52 19.97-27.16 25.1-45.99 25.47z" fill="#fff15c"/></svg>