<?xml version="1.0" encoding="UTF-8"?>
<svg width="64" height="64" version="1.1" viewBox="0 0 64 64" xmlns="http://www.w3.org/2000/svg">
 <path d="m63.188 0.10738c-0.26022-0.079168-0.5261-0.10742-0.79763-0.10738l-29.495 0.0036-2.7662 0.017312c-1.0691 0.05104-2.0534 0.36795-2.9754 0.89415-0.72402 0.43001-1.3236 1.0071-1.8326 1.686-0.36198 0.47522-0.62779 1.0013-0.82571 1.5614-0.14703 0.40731-0.27143 0.82593-0.32794 1.2559-0.07913 0.54307-0.10169 1.0974-0.0394 1.6462 0.05663 0.4978 0.15286 0.98993 0.32262 1.4651 0.1641 0.45819 0.39043 0.87676 0.6507 1.284 0.39605 0.61089 0.87695 1.1482 1.4653 1.5781 0.66757 0.49772 1.386 0.88796 2.2007 1.1028 0.50348 0.13005 1.0069 0.22615 1.5217 0.23174l21.01-0.08176 0.01378 20.195 0.03411 1.4029c0.08496 0.84286 0.2887 1.6461 0.69043 2.3984 0.44699 0.82019 1.058 1.4876 1.8104 2.0249 0.74677 0.53165 1.5727 0.92753 2.4778 1.1198 0.34508 0.0735 0.69015 0.13568 1.0409 0.14695 0.61094 0.02255 1.2049-0.01712 1.7989-0.16993a6.416 6.416 0 0 0 1.4085-0.52626c0.74666-0.39607 1.3971-0.91092 1.9401-1.5672a6.744 6.744 0 0 0 0.87099-1.3917c0.4185-0.89383 0.5994-1.8442 0.60494-2.8228l0.010526-6.5167-1e-3 -8.7455-1e-3 -8.4966-9.6e-4 -8.1232c-3e-5 -0.2489-0.02834-0.49214-0.09626-0.72972a1.016 1.016 0 0 0-0.71859-0.72965z" fill="#fff" stroke-width=".8"/>
 <path d="m0.81221 63.893c0.26022 0.07917 0.5261 0.10742 0.79763 0.10738l29.495-0.0036 2.7662-0.01731c1.0691-0.05104 2.0534-0.36795 2.9754-0.89415 0.72402-0.43001 1.3236-1.0071 1.8326-1.686 0.36198-0.47522 0.62779-1.0013 0.82571-1.5614 0.14703-0.40731 0.27143-0.82593 0.32794-1.2559 0.07913-0.54307 0.10169-1.0974 0.0394-1.6462-0.05663-0.4978-0.15286-0.98993-0.32262-1.4651-0.1641-0.45819-0.39043-0.87677-0.6507-1.284-0.39605-0.61089-0.87695-1.1482-1.4653-1.5781-0.66757-0.49772-1.386-0.88796-2.2007-1.1028-0.50348-0.13005-1.0069-0.22615-1.5217-0.23174l-21.01 0.08176-0.01378-20.195-0.03411-1.4029c-0.08496-0.84286-0.2887-1.6461-0.69043-2.3984-0.44699-0.82019-1.058-1.4876-1.8104-2.0249-0.74677-0.53165-1.5727-0.92753-2.4778-1.1198-0.34508-0.0735-0.69015-0.13568-1.0409-0.14695-0.61094-0.02255-1.2049 0.01712-1.7989 0.16993a6.416 6.416 0 0 0-1.4085 0.52626c-0.74666 0.39607-1.3971 0.91092-1.9401 1.5672a6.744 6.744 0 0 0-0.87099 1.3917c-0.4185 0.89383-0.5994 1.8442-0.60494 2.8228l-0.01052 6.5167 0.00104 8.7455 0.00104 8.4966 9.6e-4 8.1232c3.04e-5 0.2489 0.028344 0.49214 0.096256 0.72972a1.016 1.016 0 0 0 0.71851 0.72965z" fill="#fff" stroke-width=".8"/>
</svg>
