<svg xmlns="http://www.w3.org/2000/svg" viewBox="0 0 64 63.91" fill="#fff" xmlns:v="https://vecta.io/nano"><path d="M32.08 0C49.85.19 64.05 14.32 64 32.06c-.05 17.76-14.32 32-32.29 31.85C14.04 63.76-.08 49.61 0 31.82.08 14.09 14.29.12 32.08 0zM7.23 31.99c0 13.57 11.12 24.69 24.68 24.7 13.71 0 24.85-11.08 24.85-24.75 0-13.58-11.13-24.7-24.76-24.69-13.67 0-24.78 11.09-24.78 24.74zm28.41 3.15v6.57c0 .54.12.8.72.93 1.85.38 2.98 2.05 2.77 3.96-.2 1.79-1.69 3.11-3.55 3.13h-3.46c-2.2-.01-3.73-1.53-3.74-3.75V33.06c0-.66-.09-1-.85-1.17-1.7-.38-2.8-1.97-2.69-3.63.12-1.79 1.37-3.17 3.17-3.39 1.45-.17 2.91-.17 4.35 0 2 .23 3.27 1.69 3.28 3.71v6.57zm-3.66-20.92c2.04 0 3.66 1.6 3.65 3.62 0 1.95-1.68 3.6-3.64 3.59-1.97-.01-3.63-1.66-3.62-3.61 0-2 1.61-3.59 3.61-3.59z"/></svg>