<svg xmlns="http://www.w3.org/2000/svg" viewBox="0 0 64 56.81" fill="#fff" xmlns:v="https://vecta.io/nano"><path d="M21.65 56.81H2.16A2.16 2.16 0 0 1 0 54.65v-9.99c0-1.41.64-2.05 2.04-2.06l5.38-.01c.29 0 .58-.11.81-.29l5.24-4.17c3.23-2.52 7.13-3.12 11.46-2.26s8.72.6 13.04-.27c2.94-.59 5.15 1.66 4.59 4.24-.28 1.31-1.54 2.44-2.96 2.65a8.9 8.9 0 0 1-1.26.09h-8.07c-1.39 0-2.2 1.18-1.71 2.47.23.63.72.96 1.37 1.06.2.03.4.02.61.02h12.48c1.8.01 3.54-.59 4.94-1.72l10.26-8.16c1.36-1.07 2.99-1.05 4.35 0 1.34 1.03 1.8 2.62 1.1 4.16-.25.54-.69 1.05-1.16 1.43L46.18 54.97c-1.53 1.23-3.24 1.81-5.2 1.81-6.44-.01-12.89 0-19.33 0zm10.71-28.39c-4.96-.18-8.28-2.28-10.2-6.39-1.13-2.43-1.09-4.97-.09-7.49 1.1-2.77 2.57-5.33 4.21-7.8 1.29-1.95 2.66-3.85 4.02-5.75.95-1.33 2.47-1.31 3.39.04l5.89 8.87c1.27 2.02 2.34 4.17 2.84 6.53.51 2.42.07 4.73-1.23 6.81-1.43 2.3-3.43 3.96-6.07 4.7-1.02.28-2.09.38-2.74.49z"/></svg>