<svg xmlns="http://www.w3.org/2000/svg" viewBox="0 0 78.01 70.81" fill="#fff" xmlns:v="https://vecta.io/nano"><path d="M67.39 42.49c.75 0 1.5.27 2.18.79 1.34 1.03 1.8 2.62 1.1 4.16-.25.54-.69 1.05-1.16 1.43L53.18 62c-1.52 1.23-3.23 1.81-5.18 1.81h-.02-8.88-9.2-1.25-10.21-9.28A2.16 2.16 0 0 1 7 61.65v-9.99c0-1.41.64-2.05 2.04-2.06h.53 2.23l2.62-.02c.29 0 .58-.11.81-.29l5.24-4.17c2.32-1.81 4.99-2.63 7.91-2.63 1.14 0 2.33.13 3.55.36a28.93 28.93 0 0 0 5.56.53c2.5 0 5-.3 7.48-.79.32-.06.63-.1.94-.1 2.45 0 4.15 2.04 3.65 4.34-.28 1.31-1.54 2.44-2.96 2.65a8.9 8.9 0 0 1-1.26.09h-2.33-2.54-3.2c-1.39 0-2.2 1.18-1.71 2.47.23.63.72.96 1.37 1.06a2.55 2.55 0 0 0 .39.02h.22 0 .44 6.7l5.34.01h.05c1.78 0 3.51-.6 4.9-1.72l10.26-8.16c.68-.53 1.42-.8 2.16-.8m0-7c-2.34 0-4.59.79-6.5 2.3l-5.12 4.05a10.79 10.79 0 0 0-1.44-2.38c-2.03-2.52-5.1-3.96-8.42-3.96-.77 0-1.55.08-2.32.23-2.16.44-4.21.66-6.1.66a21.86 21.86 0 0 1-4.2-.39c-1.67-.33-3.32-.5-4.9-.5-4.62 0-8.73 1.38-12.22 4.11l-2.8 2.22-.95.76h-.62-1.1-1.12-.54C3.8 42.61 0 46.42 0 51.66v10c0 5.04 4.11 9.15 9.16 9.15h9.28 5.1 5.1 1.25 4.6 4.6 8.87c3.62 0 6.84-1.13 9.61-3.36l7.59-6.1 8.74-7.03c.95-.77 2.27-2.08 3.13-3.96 2.05-4.49.77-9.55-3.18-12.61-1.91-1.47-4.14-2.25-6.46-2.25h0z"/><path d="M38.98 7c.62 0 1.24.34 1.7 1.03l5.89 8.87c1.27 2.02 2.34 4.17 2.84 6.53.51 2.42.07 4.73-1.23 6.81-1.43 2.3-3.43 3.96-6.07 4.7-1.02.28-2.09.38-2.74.49-4.96-.18-8.28-2.28-10.2-6.39-1.13-2.43-1.09-4.97-.09-7.49 1.1-2.77 2.57-5.33 4.21-7.8C34.58 11.8 35.95 9.9 37.31 8c.47-.66 1.08-.98 1.69-.98m0-7h0c-2.92 0-5.61 1.43-7.38 3.92l-.44.62-3.72 5.34c-2.18 3.3-3.73 6.18-4.87 9.08-1.75 4.42-1.66 8.92.25 13.03 2.13 4.57 6.69 10.09 16.3 10.43h.25c.4 0 .79-.03 1.18-.1a13.14 13.14 0 0 1 .41-.06c.73-.1 1.84-.25 3.03-.59 4.22-1.18 7.72-3.85 10.14-7.74 2.28-3.67 3.02-7.8 2.13-11.96-.61-2.88-1.84-5.77-3.77-8.81-1.67-2.65-3.43-5.25-5.13-7.75l-.88-1.3C44.76 1.56 41.96.03 39 .03h0z"/></svg>