<svg xmlns="http://www.w3.org/2000/svg" viewBox="0 0 113.97 184.75" xmlns:v="https://vecta.io/nano"><path d="M68.26 112.87c30.53-6.55 50.08-35.02 44.87-65.58C108.2 18.39 81.63-2.86 50.98.31c-15 1.55-27.44 8.32-37.39 19.73-18.72 21.47-18.02 55.09 1.62 75.78 8.34 8.79 18.36 14.58 30.24 17.01 1.95.4 2.62 1.2 2.52 3.18a100.1 100.1 0 0 0 0 9.8c.1 2.08-.7 2.59-2.64 2.56-5.22-.07-10.45-.07-15.67.12-4.87.18-8 4.51-6.95 9.26.8 3.6 3.83 5.82 8.36 5.9 4.79.08 9.58.09 14.37 0 1.86-.04 2.58.52 2.53 2.47-.11 5.01-.04 10.02-.04 15.03v14.37c0 1.24.09 2.45.6 3.62 1.68 3.87 5.95 6.24 9.9 5.47 4.4-.85 7.66-4.61 7.68-9.02l.04-25.05c.02-2.15-.93-4.84.46-6.31 1.43-1.51 4.14-.43 6.28-.53 4.06-.19 8.14.35 12.17-.3 4.16-.68 6.72-4.18 6.28-8.31-.39-3.73-3.85-6.66-8.16-6.72-4.94-.08-9.87-.07-14.81 0-1.67.02-2.34-.48-2.29-2.23.11-3.55.12-7.12 0-10.67-.06-1.7.67-2.26 2.17-2.59zM56.87 96.19c-21.83-.02-39.19-17.49-39.14-39.41.04-21.61 17.63-39.02 39.39-38.98 21.6.03 39.24 17.68 39.22 39.24-.02 21.75-17.58 39.18-39.46 39.16z" fill="#da1c5c"/></svg>