<svg xmlns="http://www.w3.org/2000/svg" viewBox="0 0 112.54 164.02" xmlns:v="https://vecta.io/nano"><path d="M12.4 112.69c1.12-3.13-.8-5.33-3.2-7.65-12.29-11.83-12.24-32.68 0-44.56 2.43-2.36 3.77-4.65 3.31-8.15-.66-5.01.97-9.77 3.56-13.84 2.09-3.29 5.24-5.96 8.15-8.66 8.01-7.43 15.84-15.04 23.52-22.81 2-2.02 4.27-3.79 6.22-5.86 1.45-1.54 2.54-1.53 4.02-.1 3.35 3.24 6.85 6.32 10.18 9.56L91.4 32.91c6.15 5.62 9.5 12.49 8.66 21.01-.22 2.17.32 3.75 2 5.26 6.72 6.01 10.25 13.68 10.48 22.62.24 9.7-3.16 18.08-10.54 24.58-1.61 1.41-2.14 2.88-1.97 4.96.77 9.45-2.95 16.91-10 23.1-8.7 7.65-17.16 15.56-25.73 23.36l-5.7 5.16c-1.49 1.34-2.89 1.49-4.5.01l-20.46-18.58-11.83-10.7c-6.25-5.45-9.49-12.22-9.39-20.99z" fill="#da7c9c"/><path d="M74.83 102.53c-.08 8.25-3.15 15.4-7.61 22.01-1.76 2.61-3.65 5.12-5.8 7.39-3.24 3.43-7.04 3.46-10.16-.01-6.27-6.97-11.46-14.65-13.09-24.27-1.4-8.28.51-16.18 3.35-23.85 2.4-6.48 5.44-12.66 8.92-18.58 2.42-4.11 9.08-4.34 11.48-.23 5.55 9.54 10.24 19.5 12.23 30.59.41 2.29.69 4.61.68 6.95zm-18.61-56.4c-3.2-.01-5.98-2.91-6-6.26-.02-3.36 2.87-6.45 6.07-6.48 3.15-.04 6.14 3.07 6.17 6.42.03 3.23-3.04 6.33-6.24 6.32z" fill="#da1c5c"/></svg>