<svg xmlns="http://www.w3.org/2000/svg" viewBox="0 0 211.79 227.12" xmlns:v="https://vecta.io/nano"><path d="M15.95 30.14c.53 6.58.35 14 .62 21.4.08 2.17.27 4.35.22 6.52-.1 4.66-3.58 8.26-7.99 8.42-4.87.18-7.96-2.55-8.55-7.57-.11-.96-.14-1.94-.14-2.92L0 10.77C-.01 4.05 3.36.62 10.04.54L55.47 0h2.25c4.96.13 8.2 3.26 8.22 7.93.02 4.75-3.49 8.45-8.29 8.55l-26.54.43h-2.42c-.11 1.05.61 1.36 1.05 1.8L41.61 30.7c1.01 1.04 1.71 1.13 2.73.02 1.63-1.76 3.36-3.43 5.1-5.08 3.67-3.49 8.6-3.56 11.87-.22 3.28 3.35 3.11 8.22-.43 11.86-1.67 1.72-3.35 3.44-5.13 5.05-1.24 1.12-.93 1.91.12 2.93 2.79 2.72 5.57 5.47 8.22 8.33 1.27 1.37 2.21 1.34 3.53.12 7.66-7.04 16.84-11.14 26.87-13.38 17.52-3.92 33.66-1.18 47.87 10.31 1.18.96 2.02 1.06 3.28.06l34.46-27.14c.4-.32.87-.61.97-1.52l-11.15-1.92-11.08-1.85c-4.65-.82-7.74-4.82-7.11-9.13.66-4.5 4.47-7.57 9.2-6.88L190.21 7l11.74 1.98c.3.05.6.05.89.13 8.3 2.45 9.87 4.15 8.51 12.33L204.57 62c-.79 4.67-4.53 7.49-8.93 6.95-4.52-.55-7.59-4.01-7.06-8.79.68-6.1 1.88-12.14 2.86-18.2l.68-4.22-13.01 10.18-21.03 16.57c-1.28 1-1.61 1.73-.69 3.29 20.66 35.39.35 79.76-39.93 87.24-1.61.3-2.16.97-2.13 2.51.06 3.15.08 6.3 0 9.45-.04 1.64.54 2.26 2.22 2.23 5.02-.08 10.05-.05 15.07-.02 5.02.04 8.76 3.54 8.73 8.09-.04 4.65-3.67 7.97-8.74 7.99-4.95.01-9.9.08-14.85-.03-1.91-.04-2.44.66-2.43 2.48l.03 29.48c0 3.37-1.19 6.13-3.94 8.16-5.07 3.74-12.19 1.17-13.73-5.01-.32-1.29-.4-2.67-.41-4.01l-.02-27.68q0-3.39-3.49-3.39H79.82c-5.11-.03-8.46-3.28-8.48-8.16-.02-4.61 3.48-7.89 8.48-7.91l15.07.03c1.96.04 2.45-.76 2.4-2.53a134.97 134.97 0 0 1 0-8.77c.07-1.82-.55-2.56-2.43-2.98-24.4-5.41-39.52-20.4-45.06-44.7-3.07-13.46-.85-26.53 4.76-39.04.73-1.63.68-2.65-.62-3.93-3.48-3.41-6.85-6.93-10.2-10.48-1-1.05-1.7-1.16-2.73-.05-1.69 1.81-3.46 3.54-5.26 5.24-3.58 3.4-8.45 3.49-11.72.28-3.29-3.23-3.29-8.05.09-11.71 1.73-1.87 3.61-3.61 5.42-5.4.68-.67 1.33-1.37.36-2.26L15.94 30.12zm91.24 25.87c-22.87-.02-41.65 18.47-41.69 41.03-.04 23.44 18.38 41.99 41.59 42.12 21.67.12 41.66-17.08 41.69-41.55.03-24.97-20.5-41.94-41.59-41.59z" fill="#7f3f98"/></svg>