<svg xmlns="http://www.w3.org/2000/svg" viewBox="0 0 122.06 177.89" xmlns:v="https://vecta.io/nano"><path d="M13.45 122.23c1.21-3.39-.86-5.78-3.48-8.3C-3.36 101.1-3.3 78.48 9.96 65.6c2.64-2.56 4.08-5.04 3.59-8.84-.71-5.43 1.05-10.6 3.86-15.01 2.27-3.57 5.68-6.47 8.84-9.39 8.69-8.05 17.18-16.31 25.51-24.74 2.17-2.2 4.63-4.11 6.75-6.35 1.57-1.67 2.76-1.66 4.36-.11 3.63 3.51 7.43 6.85 11.04 10.37l25.2 24.17c6.67 6.1 10.31 13.55 9.39 22.78-.23 2.36.35 4.07 2.17 5.7 7.28 6.52 11.12 14.83 11.36 24.53.26 10.52-3.42 19.61-11.43 26.66-1.74 1.53-2.32 3.12-2.14 5.37.84 10.25-3.2 18.34-10.85 25.06-9.44 8.29-18.62 16.88-27.91 25.34l-6.18 5.6c-1.62 1.46-3.13 1.62-4.88.02l-22.19-20.15-12.83-11.6c-6.78-5.91-10.29-13.25-10.18-22.77z" fill="#ba79d1"/><path d="m81.7,90.14c-.03,10.85-1.57,21.47-4.89,31.8-1.61,5.01-4.31,9.37-8.36,12.84-3.75,3.22-10.43,3.17-14.81-.07-3.74-2.77-5.96-6.64-7.66-10.78-2.09-5.08-3.07-10.47-4.14-15.87-1.16-5.87-1.54-11.78-1.49-17.67.05-6.34.14-12.7,1.41-19.02.99-4.95,1.89-9.9,3.76-14.59,1.82-4.59,3.86-9.23,8.27-11.89,6.35-3.83,12.45-3.51,17.67,2.73,4.97,5.95,6.73,13.17,8.31,20.49,1.56,7.26,2.01,14.61,1.94,22.02Z" fill="#7f3f98"/><path d="m59.74,137.17c-2.86.04-6.25-1.67-8.94-4.48-2.97-3.1-4.88-6.71-6.24-10.55-1.64-4.61-2.64-9.33-3.28-14.11-.19-1.37.27-2.63.71-3.9,1.29-3.76,3.64-7.38,6.99-10.05,1.55-1.23,3.47-2.19,5.56-2.39,2.03-.19,3.68.55,5.62.77,2.65.3,4.87-1.11,7.45-1.06,1.19.02,2.34.45,3.33,1.03,4.98,2.96,8.26,8.04,9.64,13.04.66,2.39-.15,4.72-.56,7.05-.89,4.98-2.22,9.87-4.66,14.48-1.42,2.68-3.23,5.12-5.68,7.21-2.37,2.02-5.15,2.98-9.93,2.94Z" fill="#a36abf"/><path d="M62.52 120.93c1.01 0 1.18.55 1.17 1.47l-.02 11.76c0 1.86-1.1 3.03-2.81 3.01-1.65-.02-2.71-1.19-2.72-3.01l-.03-11.76c-.01-.92.16-1.47 1.17-1.47h3.24z" fill="#7f3f98"/></svg>