<svg xmlns="http://www.w3.org/2000/svg" viewBox="0 0 138.09 138.11" xmlns:v="https://vecta.io/nano"><path d="M121.47 27.97l-9.98 10.57-15.34 15.33c-1.38 1.35-1.44 2.39-.38 3.95 5.62 8.31 8.4 17.63 8.43 27.56.03 12.82-3.86 24.41-12.33 34.3-10.85 12.66-24.7 18.76-41.22 18.41-20.23-.43-39.58-12.75-47.14-33.76-6.63-18.39-3.85-35.63 8.33-50.9C22.95 39.51 37.96 33.49 55.6 34.24c9.18.39 17.63 3.51 25.33 8.55 1.24.81 2.06.81 3.14-.28l24.95-25.03c.22-.22.39-.5.74-.96-1.18-.49-2.27-.44-3.36-.43l-20.47.12c-5.19-.04-8.38-3.1-8.43-7.78C77.45 3.69 80.4.64 85.16.5 98.64.09 112.12-.03 125.6.02l2.44-.02c6.97-.07 10.02 2.93 10.02 9.84v34.13c0 2.92.11 5.86-.06 8.77-.2 3.52-1.88 6.19-5.29 7.5-2.99 1.14-6.38.19-8.64-2.29-1.34-1.47-1.75-3.21-1.74-5.16l.02-24.27-.87-.54zM87.81 86.16c.46-18.73-14.82-35.63-35.22-35.68-21.14-.05-36.07 17.03-35.94 36.14.13 19.23 16.5 35.38 35.91 35.28 19.51-.1 35.3-16.11 35.25-35.74z" fill="#27aae1"/></svg>