<svg xmlns="http://www.w3.org/2000/svg" viewBox="0 0 108.54 168.4" xmlns:v="https://vecta.io/nano"><path d="M32.56 168.4h-5.92c-.26-.06-.53-.15-.79-.18-8.36-.91-14.98-4.89-20.16-11.42-3.28-4.13-4.92-8.91-5.69-14.05v-7.56c.48-2.86 1.17-5.66 2.35-8.32 3.16-7.11 8.34-12.19 15.42-15.34 1.41-.63 1.88-1.47 1.87-3.01l-.09-59.64c-.07-7.88 1.14-15.42 3.99-22.73 2.3-5.9 5.33-11.38 9.54-16.12C37.94 4.54 43.88.88 51.31 0h5.92c.1.04.2.1.31.11 7.83.93 13.79 5.03 18.74 10.92 3.59 4.27 6.28 9.06 8.34 14.2 2.56 6.36 4.33 12.91 4.32 19.86l-.05 62.93c0 1.91.53 2.95 2.31 3.74 5.2 2.31 9.39 5.87 12.54 10.66 2.57 3.91 4.09 8.18 4.8 12.76v7.24c-.05.21-.12.42-.15.64-1.31 10.35-7.04 17.58-16.03 22.39-3.24 1.73-6.83 2.5-10.46 2.95h-6.25c-5.18-.64-9.78-2.71-14.23-5.4-4.59-2.77-9.52-2.83-14.15-.07-4.6 2.75-9.32 4.95-14.71 5.47z" fill="#27aae1"/><path d="M88.93 41.28v8.59l-.57 1.72C85.11 63.37 73.47 71.11 61.43 69.6c-2.48-.31-4.82-1.59-7.18-1.57-2.43.02-4.81 1.36-7.35 1.58-8.97.76-16.41-2.23-22.19-9.13-2.58-3.08-3.97-6.81-5.14-10.61v-8.59c.63-5.13 1.92-10.09 3.78-14.91 2.3-5.98 5.38-11.53 9.63-16.32C37.86 4.55 43.83.89 51.28 0h5.94c3.34.42 6.55 1.34 9.5 2.97 6.81 3.75 11.48 9.53 15.11 16.25 3.73 6.91 6.12 14.26 7.09 22.07z" fill="#ccf1ff"/><path d="M57.25 0c1.87 0 2.18 1 2.15 2.7l-.05 21.67c0 3.42-2.03 5.58-5.17 5.55-3.03-.03-5-2.2-5-5.55L49.13 2.7C49.11 1 49.42 0 51.29 0h5.96z" fill="#27aae1"/></svg>