<svg xmlns="http://www.w3.org/2000/svg" viewBox="0 0 59.99 76.27" fill="#fff" xmlns:v="https://vecta.io/nano"><path d="M30.25 7.1h.09a10.13 10.13 0 0 1 1.09.07c1.18.1 2.33.32 3.45.66l.32.1c.01 0 .02 0 .04.01 1.92.61 3.68 1.55 5.27 2.8a17.29 17.29 0 0 1 4.01 4.43c.67 1.06 1.21 2.18 1.63 3.36l.29.87c.3.96.5 1.93.6 2.92l.07 1.17.02 7.33h2.53c1.18.18 2.07.81 2.68 1.83.39.66.53 1.38.53 2.15v30.32c0 1.14-.34 2.12-1.12 2.92-.74.76-1.68 1.13-2.73 1.13h-4.35-5.22-.05-3.34-6.07-9.89-8.99c-1.36 0-2.5-.48-3.33-1.58-.4-.54-.66-1.14-.68-1.83v-.58l-.01-30.46c0-1 .23-1.88.89-2.63.64-.74 1.45-1.17 2.43-1.27.57-.06 1.13-.07 1.7-.07h.71v-6.18c-.11-1.75.13-3.49.65-5.17.61-1.95 1.5-3.77 2.76-5.41 1.36-1.78 2.97-3.25 4.86-4.39a16.71 16.71 0 0 1 2.61-1.3l.15-.06.21-.08c1.44-.53 2.93-.86 4.46-.99a9.61 9.61 0 0 1 1.07-.07h.09.28.28m7.45 23.7v-6.45-.21l-.03-.5c0-.16-.03-.32-.04-.47-.1-.75-.3-1.47-.64-2.17a8.23 8.23 0 0 0-1.04-1.63c-.21-.25-.44-.5-.69-.73-.06-.05-.11-.11-.17-.16-.04-.03-.07-.07-.11-.1l-.02-.02c-.51-.42-1.08-.78-1.71-1.08a7.99 7.99 0 0 0-1.51-.53c-.59-.13-1.17-.19-1.74-.2-.57 0-1.14.07-1.72.19a8.17 8.17 0 0 0-1.53.53c-1.69.79-2.92 2.04-3.74 3.72-.52 1.06-.72 2.19-.73 3.36v6.42l15.46.03M30.25 0h-.29-.28-.16a14.97 14.97 0 0 0-1.71.11 23.96 23.96 0 0 0-6.2 1.39l-.26.1 2.45 6.67-2.5-6.65-.2.08c-1.27.5-2.52 1.12-3.71 1.84-2.61 1.58-4.91 3.65-6.81 6.15-1.71 2.25-3.02 4.81-3.89 7.62-.77 2.48-1.09 4.98-.96 7.45v.2c-1.16.61-2.2 1.45-3.1 2.48C1.43 28.8 0 31.19 0 34.73l.01 23.52v6.93.77c.06 2.11.78 4.16 2.1 5.91 2.14 2.85 5.34 4.42 9 4.42h8.99 4.95H30h2.02 4.05 3.34 2.66 2.61 4.38A10.84 10.84 0 0 0 56.85 73c2.05-2.11 3.14-4.83 3.13-7.89v-30.3c0-2.13-.52-4.08-1.54-5.79-1.05-1.77-2.5-3.14-4.22-4.06l-.01-1.54c0-.6-.05-1.22-.12-1.85-.15-1.42-.44-2.85-.88-4.26a23.73 23.73 0 0 0-.4-1.19c-.57-1.6-1.35-3.2-2.29-4.71-1.5-2.39-3.4-4.49-5.65-6.25a23.92 23.92 0 0 0-7.44-3.95c-.03 0-.06-.02-.09-.03h0c-.15-.05-.3-.09-.45-.14a24.01 24.01 0 0 0-4.76-.92 18.26 18.26 0 0 0-1.74-.11h-.16zm-.44 23.67c.06 0 .11-.02.16-.02s.1 0 .16.02c.01 0 .02 0 .04.01h-.4s.03-.01.04-.01h0zm5.8 23.17c-.19.87-.55 1.63-1.05 2.36-.21.3-.47.55-.74.79a.86.86 0 0 0-.29.73v5.32c-.02 1.03-.22 2.01-.99 2.79-.61.62-1.33 1.03-2.22 1.09-1.61.1-2.8-.54-3.53-1.99-.23-.45-.33-.93-.33-1.43v-2.86h0v-2.97c0-.25-.07-.44-.26-.6-.94-.83-1.59-1.85-1.84-3.08-.11-.55-.16-1.12-.11-1.71.08-.86.31-1.65.72-2.39.67-1.2 1.67-2.03 2.94-2.54.99-.4 2.02-.45 3.05-.29.85.13 1.64.48 2.34.98.86.62 1.53 1.42 1.93 2.39.45 1.09.62 2.23.37 3.42z"/></svg>