<svg xmlns="http://www.w3.org/2000/svg" viewBox="0 0 68.26 78.5" xmlns:v="https://vecta.io/nano"><defs><linearGradient id="A" x1="17.23" y1="4.34" x2="46.51" y2="59.17" gradientUnits="userSpaceOnUse"><stop offset="0" stop-color="#f33"/><stop offset=".19" stop-color="#ec2323"/><stop offset=".32" stop-color="#e61e1e"/><stop offset=".58" stop-color="#de1d1d"/><stop offset=".97" stop-color="#cb1c1c"/><stop offset="1" stop-color="#c91c1c"/></linearGradient><filter id="B" filterUnits="userSpaceOnUse"><feOffset dx="4.21" dy="7.81"/><feGaussianBlur result="A" stdDeviation="3.88"/><feFlood flood-color="#000" flood-opacity=".1"/><feComposite in2="A" operator="in"/><feComposite in="SourceGraphic"/></filter></defs><circle cx="32" cy="32" r="32" fill="url(#A)"/><path d="m30.74,53.15c-.83-7.2-2.87-13.81-9.04-18.37-1.54-1.14-3.45-2.12-5.44-2-2.3.13-4.34,1.73-5.16,3.85-1.12,2.87.14,6.26,2.96,7.58,1.34.63,2.79.6,4.23.77,1.27.15,2.53.41,3.74.8,2.44.79,4.64,2.17,6.39,4.05.93,1,1.6,2.17,2.32,3.33Z" fill="#fff" filter="url(#B)"/><path d="M24.12 31.17c-.05-.27.04-.73.06-.92.03-.3.08-.61.14-.91.12-.57.29-1.13.51-1.66.43-1.03 1.05-1.96 1.8-2.77.58-.63 1.24-1.18 1.94-1.68.81-.57 1.77-.98 2.45-1.71 1.74-1.89.94-4.8-1.24-5.92a4.06 4.06 0 0 0-2.05-.46c-2.59.11-4.04 2.54-4.74 4.75-.14.43-.25.88-.34 1.32l-.09.47c-.49 2.68.21 7.16 1.56 9.49z" fill="#fff" filter="url(#B)"/><path d="m34.71,52.27c-.32-8.95,4.38-14.95,11.54-19.43,3.09-1.94,4.82-5.15,4.3-8.46-.59-3.74-3.05-6.4-6.67-7.19-3.34-.73-6.75.75-8.8,3.79-3.56,5.27-4.63,11.15-4.16,17.38.35,4.53,1.46,8.88,3.21,13.07.12.29.47.83.57.84Z" filter="url(#B)" fill="#fff"/></svg>