<svg xmlns="http://www.w3.org/2000/svg" viewBox="0 0 64 55.76" fill="#fff" xmlns:v="https://vecta.io/nano"><path d="M0 17.87c.43-1.21 1.07-2.26 2.27-2.85 1.53-.75 3.04-.68 4.44.28 1.37.95 2.04 2.31 1.81 3.98-.1.72.15 1.01.72 1.34l8.78 5.14c.44.26.62.19.86-.22L29.17 8.49c.26-.43.28-.69-.12-1.06-1.39-1.25-1.71-2.83-1.13-4.55S29.8.18 31.59.02c1.77-.16 3.17.58 4.09 2.11 1.08 1.8.75 3.92-.81 5.33-.39.35-.34.61-.1 1l10.31 17.11c.24.4.42.44.82.2l9.11-5.33c.37-.21.5-.42.43-.88-.32-2.26.91-4.2 3.01-4.85 1.96-.61 4.11.31 5.07 2.17 1.37 2.64-.36 5.91-3.33 6.23-.52.06-.7.26-.82.72L54.1 43.02c-.15.54-.4.72-.96.72-14.11-.01-28.22-.01-42.33 0-.55 0-.81-.18-.96-.72L4.58 23.83c-.13-.46-.31-.65-.82-.72-1.98-.28-3.18-1.49-3.75-3.37v-1.87zm31.95 37.88H11.73c-1.41 0-2.57-.5-3.34-1.71-1.48-2.35.07-5.37 2.85-5.58l.5-.01h40.45c1.77 0 3.06.82 3.67 2.29.95 2.31-.71 4.9-3.25 5l-3.62.01H31.95z"/></svg>