<svg xmlns="http://www.w3.org/2000/svg" viewBox="0 0 71 68.4" xmlns:v="https://vecta.io/nano"><path d="M3.5 28.52v-1.5c.51-1.61 1.59-2.56 3.29-2.73l7.46-.67 10.01-.9c.6-.05.91-.33 1.13-.87l3.11-7.3 3.73-8.73c.7-1.62 1.96-2.45 3.55-2.31 1.53.13 2.46 1.05 3.05 2.42l6.7 15.75c.32.76.75 1.06 1.53 1.07.73.01 1.45.1 2.18.17l14.42 1.31c1.91.15 3.25.91 3.84 2.79v1.5c-.31.81-.76 1.51-1.43 2.09l-13.26 11.6c-.27.23-.37.48-.29.82l.43 1.89 3.53 15.54c.34 1.51-.02 2.8-1.26 3.73-1.29.96-2.67.93-4.03.08l-1.99-1.18-13.03-7.8c-.5-.3-.88-.31-1.36 0l-2.57 1.54-12.44 7.44c-.75.45-1.55.73-2.44.58-2.03-.32-3.31-2.13-2.88-4.15l1.58-7.01 2.37-10.42c.09-.39.15-.74-.23-1.07L5.88 31.42c-.95-.84-2-1.6-2.37-2.9z" fill="none" stroke="#fff" stroke-linejoin="round" stroke-width="7"/></svg>