<svg xmlns="http://www.w3.org/2000/svg" viewBox="0 0 64 63.94" xmlns:v="https://vecta.io/nano"><path d="M64 29.31v5.24c-.26 2.19-.63 4.35-1.24 6.47-4.25 14.85-19.31 24.68-34.62 22.66-6.83-.9-12.88-3.54-17.81-8.33C.98 46.27-2.18 35.24 1.5 22.76 4.92 11.18 12.93 3.94 24.61.82c1.63-.44 3.3-.61 4.97-.82h4.99c1.5.19 3.01.33 4.48.7 12.11 3.08 20.05 10.58 23.8 22.5.63 1.99.9 4.05 1.15 6.11zM48.78 45.88v-.18c-.27-5.21-4.68-9.62-9.88-9.74-4.36-.1-8.72-.03-13.09-.04-.44 0-.88 0-1.31.07-4.71.69-8.18 4.04-9.04 8.72-.36 1.99-.15 3.82 1.53 5.21 5.07 4.18 10.91 5.98 17.43 5.37 4.69-.44 8.86-2.23 12.52-5.21 1.32-1.08 1.97-2.43 1.82-4.2zM32.04 30.56a10.38 10.38 0 0 0 10.49-10.4c.03-5.78-4.59-10.48-10.32-10.52-5.87-.04-10.55 4.56-10.59 10.38a10.38 10.38 0 0 0 10.42 10.54z" fill="#fff"/></svg>