<svg xmlns="http://www.w3.org/2000/svg" viewBox="0 0 64 46.61" fill="#fff" xmlns:v="https://vecta.io/nano"><path d="M43.56 46.58c-5.62 0-11.24-.04-16.86.02-2.01.02-3.5-1.27-3.47-3.49.12-8.11 6.46-15.6 14.51-16.7 4.33-.59 8.74-.74 13.04.26 6.82 1.57 12.15 7.59 13.05 14.53.09.69.14 1.4.15 2.1.03 2.03-1.21 3.28-3.23 3.28H46h-2.45zM17.44 23.34c-6.37.06-11.7-5.35-11.61-11.78C5.92 5.18 11.12 0 17.57 0c6.37 0 11.63 5.29 11.62 11.67-.01 6.49-5.23 11.67-11.75 11.66zm26.12 0c-6.38.06-11.7-5.35-11.61-11.78C32.04 5.18 37.23 0 43.68 0c6.37 0 11.63 5.29 11.62 11.67-.01 6.49-5.22 11.67-11.74 11.66zM10.15 46.58H3.28c-2.03 0-3.22-1.23-3.27-3.26-.13-4.9 1.41-9.15 4.93-12.59 3.08-3.02 6.84-4.53 11.15-4.61 2.45-.05 4.9-.09 7.27.69 1.15.38 1.16.28.35 1.16-3.22 3.5-5.19 7.61-5.88 12.32-.28 1.91-.43 3.83.12 5.73.18.61-.22.57-.59.57h-7.21z"/></svg>