<?xml version="1.0" encoding="UTF-8"?>
<svg id="Capa_2" xmlns="http://www.w3.org/2000/svg" viewBox="0 0 108.35 190.09">
  <defs>
    <style>
      .cls-1 {
        fill: #fff;
      }
    </style>
  </defs>
  <g id="Capa_1-2" data-name="Capa_1">
    <g>
      <path class="cls-1" d="M33.32,116.5c-5.08-22.54,20.66-28.27,30.91-43.93,5.66-8.64,12.4-16.23,5.92-27-5.22-8.69-13.28-11.36-22.83-9.05-11.55,2.79-13.54,11.43-13.5,21.91.03,7.61-6.39,8.43-12.33,8.43-8.71,0-18.8,1.83-20.8-10.68C-3.14,32.15,9.19,13.49,28.5,5.14c22.18-9.59,46.71-6.16,64.58,13.74,16.51,18.38,20.55,39.47,7.57,61.55-4.99,8.49-11.61,16.36-18.77,23.17-8.67,8.24-14.3,16.17-14.03,29.36.27,13.16-11.89,11.43-20.89,11.01-17.27-.81-12.48-14.16-13.64-27.45Z"/>
      <path class="cls-1" d="M68.8,172.56c-1.05,10.3-6.03,17.48-17.14,17.52-10.92.04-17.7-6.08-17.88-17.25-.19-11.21,6.54-17.67,17.36-17.78,10.74-.11,16.5,6.66,17.66,17.51Z"/>
    </g>
  </g>
</svg>