<svg xmlns="http://www.w3.org/2000/svg" viewBox="0 0 57.64 64" fill="#fff" xmlns:v="https://vecta.io/nano"><path d="M30.99 19.52l1.18 1.58 6.92 9.28c.52.7.44 1.46.05 2.19s-1.07 1-1.86 1.04h-.21H5.95h-.16c-.15-.02-.18.05-.18.18v4.03 19.21c0 .56-.08 1.1-.37 1.59-.5.83-1.25 1.27-2.2 1.33-.82.06-1.57-.14-2.18-.71a2.63 2.63 0 0 1-.85-1.84L0 56.87V5.57c0-.55.06-3.69.34-4.18C.87.47 1.69.04 2.74 0c1.39-.05 2.52.81 2.82 2.16.04.17.04 2.96.06 3.14 0 .09.03.14.13.13h.18 31.24c.61 0 1.18.15 1.64.59a2.09 2.09 0 0 1 .22 2.72L31.08 19.4c-.03.04-.05.08-.09.12zm-.6 44.4c.14-.07.25-.17.36-.28l5.3-5.3 19.54-19.55 1.1-1.12a3.6 3.6 0 0 0 .83-1.55c.13-.47.13-.94.07-1.42-.05-.34-.15-.65-.29-.96-.1-.22-.22-.44-.37-.64-.19-.25-.4-.48-.64-.68a3.39 3.39 0 0 0-.72-.46c-.25-.12-.51-.2-.78-.25-.4-.09-.81-.11-1.22-.05-.47.07-.91.2-1.32.44-.25.15-.49.31-.7.52L30.14 54.09l-8.11-8.1-.58-.55c-.37-.3-.78-.54-1.24-.68a3.49 3.49 0 0 0-1.54-.09c-.52.09-1 .26-1.45.55a3.34 3.34 0 0 0-.48.36 3.6 3.6 0 0 0-.66.79c-.15.25-.27.5-.35.78-.14.46-.2.93-.15 1.41a3.54 3.54 0 0 0 .21.91c.19.53.5.98.89 1.38l2.61 2.62 3.51 3.51 3.41 3.41 3.26 3.26c.1.1.21.19.33.25.19.1.38.11.58 0z"/></svg>