<svg xmlns="http://www.w3.org/2000/svg" xmlns:xlink="http://www.w3.org/1999/xlink" viewBox="0 0 64 61.73" xmlns:v="https://vecta.io/nano"><defs><linearGradient id="A" x1="0" y1="18.06" x2="54.17" y2="18.06" gradientUnits="userSpaceOnUse"><stop offset="0" stop-color="#f33"/><stop offset=".19" stop-color="#ec2323"/><stop offset=".32" stop-color="#e61e1e"/><stop offset=".58" stop-color="#de1d1d"/><stop offset=".97" stop-color="#cb1c1c"/><stop offset="1" stop-color="#c91c1c"/></linearGradient><linearGradient id="B" x1="22.21" y1="45.67" x2="64" y2="45.67" xlink:href="#A"/></defs><path d="M53.84 16.68C48.74 6.73 38.65 0 27.09 0S5.42 6.74.33 16.69a3.03 3.03 0 0 0 0 2.75c5.1 9.95 15.2 16.68 26.76 16.68s21.66-6.74 26.76-16.69a3.03 3.03 0 0 0 0-2.75zM27.12 31.69c-7.51 0-13.59-6.08-13.59-13.59 0-.59.04-1.18.11-1.75.01-.11.03-.22.05-.33 1.44 2.64 4.23 4.43 7.45 4.43a8.47 8.47 0 0 0 8.47-8.47c0-3.15-1.72-5.9-4.27-7.36a14.26 14.26 0 0 1 1.74-.11h.04c7.51 0 13.59 6.08 13.59 13.59s-6.08 13.59-13.59 13.59z" fill="url(#A)"/><path d="M36.93 61.66c.14-.07.25-.17.36-.27l5.26-5.26 19.42-19.42 1.09-1.11c.41-.44.67-.96.83-1.54.13-.46.13-.93.07-1.41-.05-.33-.15-.65-.29-.95-.1-.22-.22-.44-.37-.63-.19-.25-.4-.48-.64-.67a3.59 3.59 0 0 0-.71-.46c-.25-.12-.51-.19-.77-.25a3.29 3.29 0 0 0-1.21-.05c-.46.07-.91.2-1.32.44-.25.15-.49.31-.7.52L36.68 51.93l-8.05-8.05-.57-.55c-.37-.3-.77-.54-1.23-.68-.5-.15-1.02-.17-1.53-.08s-1 .26-1.44.54c-.17.11-.33.22-.47.35-.25.23-.47.49-.65.78-.15.24-.27.5-.35.77-.14.46-.2.92-.15 1.4a3.47 3.47 0 0 0 .21.9c.19.52.49.97.88 1.37l2.59 2.6 3.49 3.49 3.39 3.39 3.24 3.24c.1.1.21.19.33.25.19.1.38.11.58 0z" fill="url(#B)"/></svg>