<svg xmlns="http://www.w3.org/2000/svg" viewBox="0 0 62.76 64" fill="#fff" xmlns:v="https://vecta.io/nano"><path d="M39.6.27L1.04 22.52c-1.51.87-1.31 2.96.18 3.59l8.84 3.71 23.9-21.07c.46-.41 1.11.22.72.69L14.64 33.86v6.7c0 1.96 2.37 2.74 3.54 1.31l5.28-6.43 10.37 4.34a2.01 2.01 0 0 0 2.75-1.51l5.98-35.94C42.84.65 41.04-.57 39.6.27zm-2.12 63.66c.13-.07.23-.15.34-.26l4.91-4.91 18.13-18.13 1.02-1.04c.38-.41.63-.9.77-1.44.12-.43.12-.87.06-1.31-.04-.31-.14-.61-.27-.89a3.78 3.78 0 0 0-.34-.59c-.17-.23-.37-.45-.6-.63-.21-.17-.43-.31-.67-.43-.23-.11-.47-.18-.72-.23-.38-.08-.75-.1-1.13-.04-.43.06-.85.18-1.23.41-.23.14-.46.29-.65.48-.23.22-19.86 19.92-19.86 19.92l-7.52-7.51c-.18-.17-.34-.35-.53-.51-.35-.28-.72-.5-1.15-.63-.47-.14-.95-.16-1.43-.08s-.93.24-1.34.51c-.15.1-.31.21-.44.33-.23.22-.44.46-.61.73-.14.23-.25.47-.33.72-.13.43-.18.86-.14 1.31a3.94 3.94 0 0 0 .19.84c.18.49.46.91.82 1.28l2.42 2.43 3.26 3.26 3.17 3.16 3.02 3.03c.09.09.19.17.31.24a.52.52 0 0 0 .54 0z"/></svg>