<svg xmlns="http://www.w3.org/2000/svg" viewBox="0 0 64 60.6" xmlns:v="https://vecta.io/nano"><path d="M42.22 60.29c-1.34 0-2.39-.59-3.19-1.64-1.62-2.1-3.78-3.22-6.4-3.28-2.81-.07-5.12 1.1-6.82 3.37-.75 1.01-1.7 1.67-2.96 1.84-.66.09-1.28-.04-1.89-.27-3.4-1.26-6.5-3.04-9.27-5.37-1.37-1.15-1.76-2.9-1.03-4.65.94-2.26 1.04-4.54.02-6.77-1.26-2.77-3.44-4.4-6.47-4.81C2.1 38.42.75 37.26.4 35.16A29.49 29.49 0 0 1 .63 24.2c.36-1.71 1.75-2.9 3.48-3.11 4.28-.53 7.28-3.71 7.47-7.99.05-1.05-.17-2.07-.52-3.06-.78-2.21-.3-3.75 1.58-5.19C15.09 2.98 17.75 1.5 20.62.4c2.02-.78 3.64-.34 5.04 1.33 3.25 3.9 9.34 3.93 12.62.06C39.81-.02 41.33-.4 43.54.47a31.39 31.39 0 0 1 8.57 5.01c1.66 1.37 2.11 2.87 1.42 4.9-.91 2.68-.6 5.21 1 7.54 1.3 1.91 3.14 3.03 5.41 3.43 1.96.35 3.14 1.43 3.52 3.38.72 3.72.68 7.44-.07 11.16-.33 1.65-1.64 2.82-3.4 3.12-3.64.61-6.17 2.9-6.99 6.32-.4 1.65-.25 3.25.34 4.83.77 2.07.33 3.64-1.37 5.02-2.46 2-5.15 3.6-8.08 4.81-.54.22-1.1.34-1.68.34zM31.93 40.87c5.92-.09 10.62-4.53 10.64-10.59.02-5.81-4.45-10.49-10.45-10.55-5.99-.06-10.69 4.55-10.67 10.59.01 5.88 4.56 10.37 10.48 10.55z" fill="#fff"/></svg>