<svg xmlns="http://www.w3.org/2000/svg" viewBox="0 0 64 62.04" xmlns:v="https://vecta.io/nano"><path d="M22.58 62.04H3.96c-1.34 0-2.46-.47-3.28-1.56-.4-.53-.65-1.13-.67-1.81v-.57-30.03c0-.99.23-1.85.87-2.6.63-.73 1.43-1.16 2.39-1.25 1.11-.11 2.23-.06 3.35-.06h22.89.36c.25.01.34-.11.33-.35v-.32l.01-7.35c.01-1.2.24-2.38.54-3.54a16.45 16.45 0 0 1 2.02-4.65c1.06-1.69 2.38-3.14 3.94-4.37 1.58-1.23 3.32-2.17 5.23-2.77a15.01 15.01 0 0 1 2.49-.58l2.3-.24c2.78-.02 5.44.55 7.93 1.81 2.37 1.2 4.35 2.86 5.96 4.98 1.23 1.62 2.12 3.41 2.71 5.34.56 1.8.79 3.67.6 5.56-.14 1.36-.9 2.4-2.04 3.15-.64.42-1.35.63-2.1.73-.89.12-1.73-.11-2.51-.5-1.31-.66-2.12-1.74-2.43-3.17-.11-.52-.14-1.06-.18-1.59-.12-1.97-.97-3.6-2.38-4.94-.97-.92-2.1-1.55-3.41-1.84-1.72-.39-3.39-.25-4.99.5-1.67.78-2.88 2.01-3.69 3.67-.51 1.05-.71 2.16-.71 3.31v6.67c0 .45.04.49.49.49.67 0 1.33-.02 1.99.07 1.16.17 2.04.79 2.64 1.8.39.65.52 1.36.52 2.12v29.88c0 1.12-.33 2.09-1.1 2.88-.73.74-1.65 1.11-2.69 1.12h-9.49-9.27zm-3.5-15.32h0v2.82c0 .49.1.97.33 1.41.72 1.43 1.9 2.06 3.48 1.96.87-.05 1.58-.46 2.18-1.07.75-.77.96-1.74.97-2.75v-5.24c0-.29.06-.52.29-.72.26-.23.53-.48.73-.78.49-.71.85-1.46 1.03-2.32.25-1.18.08-2.3-.36-3.37-.39-.96-1.05-1.75-1.9-2.36-.7-.5-1.48-.84-2.31-.97-1.01-.15-2.03-.11-3.01.29-1.25.51-2.24 1.32-2.9 2.51-.41.73-.64 1.51-.71 2.36-.05.58 0 1.14.11 1.68.25 1.21.89 2.22 1.81 3.03.19.16.26.35.25.6v2.92z" fill="#00d423"/></svg>