<svg xmlns="http://www.w3.org/2000/svg" viewBox="0 0 64 63.98" fill="#fff" xmlns:v="https://vecta.io/nano"><path d="M21.85 0c3.57.87 5.53 3.43 6.85 6.61 1.34 3.22 1.65 6.59 1.32 10.03-.26 2.73-.99 5.31-2.42 7.66-.85 1.41-1.92 2.63-3.35 3.46-3.07 1.79-6.64 1.11-9.06-1.66-1.96-2.25-3.03-4.9-3.53-7.8-.69-3.99-.44-7.91 1.09-11.7.86-2.14 2.1-4.01 4.02-5.37C17.63.62 18.6.26 19.61 0h2.25zm22.47 0c3.57.87 5.53 3.43 6.85 6.61 1.34 3.22 1.65 6.59 1.32 10.03-.26 2.73-.99 5.31-2.42 7.66-.85 1.41-1.92 2.63-3.35 3.46-3.07 1.79-6.64 1.11-9.06-1.66-1.96-2.25-3.03-4.9-3.53-7.8-.69-3.99-.44-7.91 1.09-11.7.86-2.14 2.1-4.01 4.02-5.37C40.1.62 41.07.26 42.08 0h2.25zM0 28.84c.18-.68.33-1.37.64-2.01 1.32-2.72 4.3-3.87 7.3-2.76 3.01 1.12 4.92 3.39 6.24 6.2.92 1.96 1.33 4.02.93 6.18-.78 4.15-4.61 6.13-8.49 4.32C2.89 39.03.99 35.89.1 32.01c-.03-.14-.07-.28-.1-.42v-2.75zm41.97 35.11c-1.75.07-3.43-.29-5.08-.81-1.35-.43-2.68-.87-4.11-.97-1.58-.11-3.11.09-4.6.61-2.32.81-4.67 1.32-7.15 1.18-2.66-.16-5.17-.81-7.42-2.28-2.94-1.92-4.02-4.61-3.35-8.19 1-5.32 3.57-9.85 7.02-13.92 2.22-2.63 4.8-4.83 7.88-6.42 5.35-2.75 10.5-2.19 15.41 1.06 5.84 3.86 9.75 9.26 12.18 15.77.61 1.64.96 3.35 1.09 5.1.19 2.61-.93 4.59-2.92 6.14-1.95 1.52-4.22 2.29-6.66 2.6-.76.1-1.53.16-2.3.12zM64 30.21c-.43 4.65-2.3 8.44-6.7 10.54-2.3 1.09-4.64 1.05-6.63-.78-1.65-1.52-2.17-3.54-1.98-5.7.35-3.83 2.14-6.91 5.26-9.17 1.57-1.14 3.35-1.68 5.3-1.36 2.39.4 4.11 2.24 4.57 4.77.1.56.15 1.11.17 1.7z"/></svg>