<svg xmlns="http://www.w3.org/2000/svg" viewBox="0 0 63.97 64" xmlns:v="https://vecta.io/nano"><path d="M42.41 31.94l7.69 7.68 11.61 11.61c2.95 2.95 3.01 7.65.1 10.59-2.83 2.87-7.57 2.88-10.51-.01l-9.13-9.12-10-9.98c-.06-.06-.13-.11-.25-.21l-4.55 4.58-11.73 11.71-3.01 3.02c-2.19 2.1-4.78 2.7-7.63 1.76-2.82-.94-4.5-3.01-4.94-5.94-.36-2.42.36-4.57 2.12-6.33l18.89-18.89c.12-.12.28-.22.49-.38l-3.64-3.58-9.88-9.87-5.63-5.6C-1.45 9.19-.53 2.97 4.28.69c2.76-1.3 6.15-.74 8.38 1.48l13.99 13.98 5.41 5.42c.26-.3.48-.6.74-.86L51.39 2.12C53.45.06 56.68-.58 59.34.53c2.86 1.2 4.61 3.78 4.63 6.8.02 2.14-.75 3.94-2.26 5.45L42.94 31.54c-.14.14-.31.24-.51.4z" fill="#fff"/></svg>